<svg width="9" height="9" viewBox="0 0 9 9" fill="none" xmlns="http://www.w3.org/2000/svg">
<path d="M4.49982 8.22795C3.47042 9.25735 1.80144 9.25735 0.772047 8.22795C-0.257349 7.19856 -0.257349 5.52958 0.772047 4.50018L2.6363 2.63593L6.36407 6.3637L4.49982 8.22795Z" fill="#54D691"/>
<path d="M4.50018 0.772047C5.52958 -0.257349 7.19856 -0.257349 8.22795 0.772046C9.25735 1.80144 9.25735 3.47042 8.22795 4.49982L6.36407 6.3637L5.61851 5.61815L7.4824 3.75426C8.10004 3.13663 8.10004 2.13524 7.4824 1.5176C6.86476 0.899963 5.86337 0.899964 5.24574 1.5176L3.38185 3.38149L2.6363 2.63593L4.50018 0.772047Z" fill="#54D691"/>
</svg>
